<?xml version="1.0" encoding="utf-8"?>
<!-- Uploaded to: SVG Repo, www.svgrepo.com, Generator: SVG Repo Mixer Tools -->
<svg fill="#000000" width="800px" height="800px" viewBox="0 0 32 32" version="1.1" xmlns="http://www.w3.org/2000/svg">
<title>clouds-moon</title>
<path d="M30.681 16.055c-0.005-0.015-0.003-0.031-0.009-0.046-0.117-0.274-0.384-0.462-0.695-0.462-0.103 0-0.201 0.021-0.29 0.058l0.005-0.002c-0.78 0.331-1.687 0.524-2.639 0.524-3.814 0-6.906-3.092-6.906-6.906 0-2.915 1.806-5.408 4.36-6.422l0.047-0.016c0.262-0.121 0.441-0.381 0.441-0.683 0-0.375-0.275-0.685-0.634-0.741l-0.004-0.001c-0.432-0.069-0.931-0.108-1.439-0.108-4.214 0-7.795 2.709-9.097 6.48l-0.020 0.068c-0.042 0.022-0.087 0.034-0.127 0.058-1.056-1.006-2.488-1.624-4.064-1.624-1.262 0-2.431 0.396-3.39 1.071l0.019-0.013c-1.478 0.716-2.479 2.204-2.479 3.927 0 0.38 0.049 0.749 0.14 1.1l-0.007-0.030c-0.814 0.274-1.477 0.812-1.904 1.51l-0.009 0.015c-0.453 0.73-0.721 1.616-0.721 2.565 0 0.703 0.147 1.372 0.413 1.977l-0.012-0.032c0.123 0.257 0.381 0.431 0.679 0.431 0.414 0 0.75-0.336 0.75-0.75 0-0.118-0.027-0.23-0.076-0.329l0.002 0.004c-0.164-0.385-0.26-0.833-0.26-1.303 0-0.651 0.183-1.259 0.501-1.776l-0.008 0.015c0.351-0.597 0.991-0.991 1.722-0.991 0.002 0 0.004 0 0.006 0h-0c0.414-0 0.75-0.336 0.75-0.75 0-0.144-0.040-0.278-0.11-0.392l0.002 0.003c-0.213-0.385-0.339-0.843-0.339-1.331 0-1.161 0.71-2.155 1.72-2.573l0.018-0.007c0.702-0.54 1.593-0.865 2.559-0.865 1.333 0 2.522 0.618 3.295 1.584l0.006 0.008c0.118 0.192 0.316 0.326 0.546 0.355l0.004 0c0.027 0.003 0.058 0.005 0.090 0.005 0.206 0 0.393-0.083 0.53-0.216l-0 0c0.303-0.309 0.725-0.501 1.192-0.501 0.164 0 0.322 0.024 0.472 0.068l-0.012-0.003c0.536 0.127 0.962 0.506 1.152 1.002l0.004 0.011c0.013 0.059 0.020 0.128 0.020 0.197 0 0.316-0.147 0.598-0.376 0.78l-0.002 0.002c-0.137 0.136-0.222 0.325-0.222 0.533 0 0.414 0.336 0.75 0.75 0.75 0.036 0 0.071-0.003 0.106-0.007l-0.004 0c0.070-0.006 0.151-0.010 0.234-0.010 1.26 0 2.325 0.833 2.674 1.978l0.005 0.020c0.109 0.282 0.376 0.479 0.689 0.483h0c1.551 1.765 3.811 2.875 6.331 2.881h0.001c0.209 0 0.419-0.045 0.628-0.061-0.472 0.348-1.010 0.657-1.581 0.902l-0.053 0.020c-0.91 0.385-1.968 0.609-3.078 0.609-0.487 0-0.964-0.043-1.427-0.126l0.049 0.007c-0.011-0.827-0.358-1.57-0.909-2.104l-0.001-0.001c-0.694-0.695-1.653-1.125-2.713-1.125-0.715 0-1.384 0.195-1.956 0.536l0.018-0.010c-1.249-1.242-2.971-2.009-4.872-2.009-1.491 0-2.871 0.472-4 1.275l0.021-0.014c-1.734 0.83-2.91 2.571-2.91 4.586 0 0.501 0.073 0.985 0.208 1.442l-0.009-0.036c-1.901 0.696-3.234 2.49-3.234 4.595 0 0.098 0.003 0.196 0.009 0.293l-0.001-0.013c-0.001 0.033-0.001 0.071-0.001 0.11 0 1.066 0.342 2.051 0.921 2.854l-0.010-0.014c0.652 0.858 1.673 1.406 2.822 1.406 0.036 0 0.071-0.001 0.106-0.002l-0.005 0 16.675-0.008c1.636-0.192 2.981-1.267 3.556-2.73l0.010-0.029c0.265-0.695 0.419-1.499 0.419-2.339 0-1.526-0.507-2.933-1.361-4.062l0.012 0.017c-0.309-0.39-0.662-0.726-1.057-1.007l-0.016-0.011c2.97-0.095 5.585-1.536 7.267-3.73l0.017-0.023c0.094-0.123 0.15-0.279 0.15-0.447 0-0.118-0.028-0.23-0.077-0.329l0.002 0.004zM18.305 9.64c-0.33-1.030-1.157-1.812-2.191-2.074l-0.021-0.005c-0.152-0.042-0.332-0.075-0.517-0.092l-0.014-0.001c0.864-1.849 2.347-3.288 4.178-4.073l0.053-0.020c0.502-0.215 1.088-0.39 1.698-0.499l0.050-0.007c-1.774 1.545-2.89 3.808-2.89 6.331 0 0.646 0.073 1.275 0.212 1.879l-0.011-0.056c-0.151-0.069-0.333-0.135-0.521-0.187l-0.027-0.006c0.050-0.178 0.078-0.383 0.078-0.595s-0.029-0.417-0.082-0.611l0.004 0.016zM23.936 27.414c-0.365 0.975-1.224 1.687-2.264 1.834l-0.015 0.002h-16.573c-0.027 0.001-0.059 0.002-0.090 0.002-0.667 0-1.259-0.317-1.634-0.809l-0.004-0.005c-0.379-0.538-0.606-1.207-0.606-1.93 0-0.039 0.001-0.078 0.002-0.117l-0 0.006c-0.012-0.105-0.019-0.228-0.019-0.351 0-1.643 1.243-2.996 2.84-3.169l0.014-0.001c0.414-0.001 0.75-0.336 0.75-0.751 0-0.143-0.040-0.277-0.11-0.391l0.002 0.003c-0.274-0.487-0.436-1.070-0.436-1.69 0-1.453 0.887-2.7 2.15-3.227l0.023-0.009c1.005-0.625 2.221-1.002 3.524-1.020l0.005-0c0.061-0.003 0.132-0.005 0.204-0.005 1.485 0 2.79 0.772 3.535 1.936l0.010 0.017c0.118 0.192 0.316 0.326 0.546 0.356l0.004 0c0.029 0.004 0.063 0.006 0.097 0.006 0.205 0 0.39-0.084 0.523-0.219l0-0c0.407-0.399 0.965-0.645 1.58-0.645 0.641 0 1.219 0.267 1.63 0.695l0.001 0.001c0.286 0.244 0.465 0.605 0.465 1.008 0 0.42-0.196 0.795-0.502 1.037l-0.003 0.002c-0.137 0.136-0.222 0.324-0.222 0.533 0 0.121 0.029 0.236 0.080 0.337l-0.002-0.004c0.121 0.249 0.373 0.418 0.664 0.418 0.039 0 0.077-0.003 0.114-0.009l-0.004 0.001c0.136-0.021 0.294-0.033 0.454-0.033 1.041 0 1.964 0.506 2.536 1.286l0.006 0.009c0.646 0.861 1.035 1.948 1.035 3.126 0 0.635-0.113 1.244-0.32 1.807l0.012-0.036z"></path>
</svg>